<svg xmlns="http://www.w3.org/2000/svg" width="300" height="300" viewBox="0 0 100 100">
  <ellipse cx="50" cy="50" rx="45" ry="45" fill="rgb(34,139,34)"/>
    <polyline points="50,5 35.6,14.9 18.5,18.5 14.9,35.6 5,50 14.9,64.4 18.5,81.5 35.6,85.1 50,95 64.4,85.1 81.5,81.5 85.1,64.4 95,50 85.1,35.6 81.5,18.5 64.4,14.9 50,5" fill="rgb(50,205,50)"/>
    <polyline points="50,24.8 35.6,14.9 31.5,31.5 14.9,35.6 24.8,50 14.9,64.4 31.5,68.5 35.6,85.1 50,75.2 64.4,85.1 68.5,68.5 85.1,64.4 75.2,50 85.1,35.6 68.5,31.5 64.4,14.9 50,24.8" fill="rgb(57,255,20)"/>
    <polyline points="50,24.8 31.5,31.5 24.8,50 31.5,68.5 50,75.2 68.5,68.5 75.2,50 68.5,31.5 50,24.8" fill="rgb(200,270,190)"/>
    <polyline points="62.8,30.7 61.3,37.1 55.3,38.7 61.3,40.3 62.8,51 64.3,40.3 70.3,38.7 64.3,37.1" fill="rgb(240, 255, 240)"/>
</svg>